<?xml version="1.0" encoding="utf-8"?>
<!-- Generator: Adobe Illustrator 27.3.1, SVG Export Plug-In . SVG Version: 6.00 Build 0)  -->
<svg version="1.1" id="Layer_1" xmlns="http://www.w3.org/2000/svg" xmlns:xlink="http://www.w3.org/1999/xlink" x="0px" y="0px"
	 viewBox="0 0 1280 1280" style="enable-background:new 0 0 1280 1280;" xml:space="preserve">
<style type="text/css">
	.st0{fill:#FFFFFF;}
	.st1{fill:#2A3568;}
	.st2{fill:#4B9C45;}
</style>
<path class="st0" d="M1165.3,1277.95H114.7c-62.21,0-112.65-50.43-112.65-112.65V114.7C2.05,52.49,52.49,2.05,114.7,2.05h1050.6
	c62.21,0,112.65,50.43,112.65,112.65v1050.6C1277.95,1227.51,1227.51,1277.95,1165.3,1277.95z"/>
<path id="XMLID_33_" class="st1" d="M712.45,237.45l406.34,699.97c28.41,48.96-6.88,110.32-63.49,110.35l-135.91,0.09
	c-5.74,0-8.12-7.45-3.37-10.68c30.07-20.48,42.86-62.38,22.3-97.8l-50.79-87.49c-0.6-1.39-1.29-2.77-2.08-4.13L702.85,533.21
	l-23.55-40.57c-0.78-1.35-1.62-2.62-2.53-3.82c-15.49-20.63-47.73-19.66-61.59,3.22l-215.2,355.4c-0.08,0.13-0.16,0.26-0.23,0.39
	c-0.1,0.15-0.2,0.32-0.3,0.48c-13.78,22.75-6.5,52.37,16.25,66.14c20.69,12.53,47.05,7.64,62.02-10.46l0.61,0l34.28-56.61
	c2.68-4.42,9.12-4.37,11.72,0.11l32.77,56.45l47.22,81.35c14.04,24.17,0.16,53.77-25.14,60.17l-374.13,0.24
	c-45.11-12.3-69.23-65.86-43.16-108.91l424.16-700.52C614.97,188.54,684.44,189.18,712.45,237.45z"/>
<path id="XMLID_32_" class="st2" d="M792.73,1049.41l-90.5,0.07c-5.04,0-7.28-6.25-3.45-9.53c2.41-2.06,4.62-4.42,6.57-7.06
	c7.97-10.08,11.06-23.87,6.77-36.99c-0.01-0.01-0.01-0.02-0.01-0.03c-0.87-2.62-2.03-5.22-3.49-7.76l-4.22-7.25l-46.12-79.45
	l-80.34-138.4c-4.29-7.4-4.21-16.55,0.22-23.86l65.13-107.57l156.58,269.74l39.2,67.54C859.83,1004.6,834.05,1049.39,792.73,1049.41
	z"/>
</svg>
