<?xml version="1.0" encoding="UTF-8"?>
<svg id="Layer_1" data-name="Layer 1" xmlns="http://www.w3.org/2000/svg" viewBox="0 0 195.79 272.36">
  <defs>
    <style>
      .cls-1, .cls-2, .cls-3, .cls-4 {
        fill: #fff;
      }

      .cls-1, .cls-5, .cls-3, .cls-6, .cls-7, .cls-4, .cls-8, .cls-9, .cls-10 {
        stroke: #231f20;
      }

      .cls-1, .cls-3, .cls-6, .cls-7, .cls-8, .cls-10 {
        stroke-miterlimit: 10;
      }

      .cls-1, .cls-10 {
        stroke-width: 2px;
      }

      .cls-5 {
        stroke-width: 3px;
      }

      .cls-5, .cls-4, .cls-9 {
        stroke-linejoin: round;
      }

      .cls-5, .cls-11 {
        fill: #fbb040;
      }

      .cls-12 {
        fill: #93ca64;
      }

      .cls-3, .cls-6, .cls-7, .cls-4, .cls-8, .cls-9 {
        stroke-width: 4px;
      }

      .cls-6 {
        fill: #e6e7e8;
      }

      .cls-13 {
        isolation: isolate;
      }

      .cls-7, .cls-4, .cls-9, .cls-10 {
        stroke-linecap: round;
      }

      .cls-7, .cls-8, .cls-9, .cls-10 {
        fill: none;
      }

      .cls-14, .cls-15 {
        fill: #748451;
      }

      .cls-16 {
        fill: #dbe579;
      }

      .cls-17 {
        fill: #548446;
      }

      .cls-18 {
        fill: #d1d3d4;
      }

      .cls-15 {
        opacity: .69;
      }

      .cls-19 {
        fill: #231f20;
      }
    </style>
  </defs>
  <ellipse class="cls-15" cx="90.03" cy="261.99" rx="90.03" ry="10.36"/>
  <g>
    <g>
      <path class="cls-6" d="m126.95,246.12s1.25,11.43,13.25,14.51c10.08,2.6,26.06,2.65,30.49,1.82.32-.06.29-.18.29-.18l-.44-.04s-2.4-5.16,1.22-9.5l.37.04c-.38-3.96-5.45-9.46-18.8-9.98"/>
      <path class="cls-5" d="m171.75,252.73l4.72.96-3.55-10.35s3.84,4.48,7.68-.5c0,0,3.5,4.54,7.66.01,0,0-2.67,7.08-2.83,11.55-.27,7.47.84,9.81-7.02,8.94-1.56-.17-7.87-1.12-7.87-1.12,0,0-1.74-.42-1.26-5.36.45-4.55,2.47-4.13,2.47-4.13Z"/>
      <path class="cls-1" d="m48.91,243.21s.05.06.08.09c.66.78,1.4,1.62,2.23,2.54.74.84,1.55,1.73,2.43,2.68.68.74,1.61,1.45,2.73,2.13.39.24.81.48,1.24.72,1.03.54,2.19,1.07,3.45,1.59.04,0,.08.03.11.05h.01c2.42.96,5.21,1.86,8.24,2.71,8.7,2.41,19.36,4.29,28.66,5.65.61.09,1.21.18,1.81.27h.01s.03,0,.05,0c10.34,1.47,18.63,2.27,19.97,2.4.12,0,.19.02.19.02,7.68.82,16.55.56,24.51-1.25,10.27-2.33,19.02-7.26,21.68-15.82.54-1.73.83-3.61.83-5.65.04-14.48-8.94-24.66-13.85-29.13h0c-.49-.45-.93-.83-1.32-1.17-1.1-.92-1.79-1.4-1.79-1.4l-9.26.35-44.52,1.7-21.62.83-2.23.08-6.67.25c-.03.38-.08.74-.12,1.11-.69,5.11-3.13,8.89-6.02,11.47-.55.49-1.11.94-1.68,1.35-.05.03-.1.07-.15.1-4.2,2.93-8.73,3.6-10.15,2.45-2.7-2.22-1.67,3.44.18,6.28,0,0-1.15.02-3.32-.41-1.75-.35-1.05,1.76,4.26,7.98Z"/>
      <path class="cls-18" d="m48.91,243.21s.05.06.08.09c.66.78,1.4,1.62,2.23,2.54.74.84,1.55,1.73,2.43,2.68.68.74,1.61,1.45,2.73,2.13.39.24.81.48,1.24.72,1.03.54,2.19,1.07,3.45,1.59.04,0,.08.03.11.05h.01c2.42.96,5.21,1.86,8.24,2.71,8.7,2.41,19.36,4.29,28.66,5.65.61.09,1.21.18,1.81.27h.01s.03,0,.05,0c10.34,1.47,18.63,2.27,19.97,2.4.12,0,.19.02.19.02,7.68.82,16.55.56,24.51-1.25,10.27-2.33,19.02-7.26,21.68-15.82.54-1.73.83-3.61.83-5.65,0-.11,0-.21,0-.32-3.29,7.39-11.47,11.76-20.94,13.9-7.96,1.81-16.83,2.07-24.51,1.25,0,0-.07,0-.19-.02-1.34-.12-9.63-.93-19.97-2.4-.02,0-.04,0-.05,0h-.01c-.59-.09-1.19-.18-1.81-.27-9.3-1.37-19.96-3.25-28.66-5.65-3.04-.84-5.82-1.74-8.24-2.71h0s-.07-.04-.11-.05c-1.26-.52-2.42-1.04-3.45-1.59-.43-.23-.85-.47-1.24-.72-1.12-.68-2.05-1.39-2.73-2.13-.88-.95-1.69-1.85-2.43-2.68-.83-.91-1.56-1.76-2.23-2.54-.03-.03-.05-.06-.08-.09-2.14-2.51-3.53-4.35-4.31-5.63-.15,1.39.67,4.2,1.8,5.94,0,0-1.15.02-3.32-.41-1.75-.35-1.05,1.76,4.26,7.98Z"/>
      <path class="cls-18" d="m48.91,243.21c-.42.56-.87,1.1-1.34,1.64l.1.03,3.55.96,3.62.99,5.35-12.74-.42-8.63-.1-2.02-.43.08h-.09c-.36,1.09-3.52,8.8-3.97,9.97-5.45.86-7.07-1.11-8.68-3.63,0,0-.37,2.95,1.47,5.78,0,0-1.15.02-3.32-.41-1.75-.35-1.05,1.76,4.26,7.98Z"/>
      <path class="cls-8" d="m48.91,243.21s.05.06.08.09c.66.78,1.4,1.62,2.23,2.54.74.84,1.55,1.73,2.43,2.68.68.74,1.61,1.45,2.73,2.13.39.24.81.48,1.24.72,1.03.54,2.19,1.07,3.45,1.59.04,0,.08.03.11.05h.01c2.42.96,5.21,1.86,8.24,2.71,8.7,2.41,19.36,4.29,28.66,5.65.61.09,1.21.18,1.81.27h.01s.03,0,.05,0c10.34,1.47,18.63,2.27,19.97,2.4.12,0,.19.02.19.02,7.68.82,16.55.56,24.51-1.25,10.27-2.33,19.02-7.26,21.68-15.82.54-1.73.83-3.61.83-5.65.04-14.48-8.94-24.66-13.85-29.13h0c-.49-.45-.93-.83-1.32-1.17-1.1-.92-1.79-1.4-1.79-1.4l-9.26.35-44.52,1.7-21.62.83-2.23.08-6.67.25c-.03.38-.08.74-.12,1.11-.69,5.11-3.13,8.89-6.02,11.47-.55.49-1.11.94-1.68,1.35-.05.03-.1.07-.15.1-4.2,2.93-8.73,3.6-10.15,2.45-2.7-2.22-1.67,3.44.18,6.28,0,0-1.15.02-3.32-.41-1.75-.35-1.05,1.76,4.26,7.98Z"/>
      <path class="cls-5" d="m101.96,255.83l8.42.96-3.55-10.35s4.4,4.48,8.24-.49c0,0,4.01,4.54,8.17.02,0,0-2.67,7.08-2.83,11.55-.27,7.47.36,9.77-7.52,9.11-10.38-.86-12.14-1.3-12.14-1.3,0,0-1.33-2.72-.64-5.54.79-3.21,1.85-3.96,1.85-3.96Z"/>
      <path class="cls-2" d="m57.16,249.23s1.25,11.43,13.25,14.51c10.08,2.6,26.06,2.65,30.49,1.82.32-.06.29-.18.29-.18l-.44-.04s-2.4-5.16,1.22-9.5l.37.04c-.38-3.96-5.45-9.46-18.8-9.98"/>
      <path class="cls-18" d="m54.84,247.08c1.01,3.46,6.83,14.41,15.57,16.66,10.08,2.6,26.05,2.64,30.49,1.82.32-.06.29-.19.29-.19l-.44-.04s-.79-1.8-.84-3.93c-17.85-.18-37.89-4.94-40.13-15.62-.37-1.78-3.6,2.01-4.93,1.3Z"/>
      <path class="cls-9" d="m57.16,249.23s1.25,11.43,13.25,14.51c10.08,2.6,26.06,2.65,30.49,1.82.32-.06.29-.18.29-.18l-.44-.04s-2.4-5.16,1.22-9.5l.37.04c-.38-3.96-5.45-9.46-18.8-9.98"/>
      <path class="cls-2" d="m27.53,263.61c.03,1.51,3.5,1.01,6.83.77.47-.03.94-.06,1.39-.08.22,0,.43-.03.64-.04,1.81-.16,3.34-.74,4.61-1.49h0c.27-.16.51-.32.75-.48-.34.89-.04,1.59,1.6,1.69,1.56.09,2.92.25,4.27.13.04,0,.08,0,.13-.01.46-.05.92-.13,1.39-.26.08-.01.15-.03.23-.05,2.48-.72,5.25-2.71,9.49-7.78.17-.19.32-.39.48-.59l.03-.03c.65-.79,1.25-1.59,1.82-2.39h.01c.48-.68.94-1.36,1.39-2.03.57-.9,1.12-1.78,1.61-2.64,3.46-6.01,4.89-10.95,5-11.38,0-.02,0-.03,0-.03l2.93-21.21.43-3.11-10.56-.33s-.02.15-.06.42c-.03.13-.04.28-.08.46-.31,1.67-1.12,5.55-2.72,10.36-.36,1.08-.76,2.21-1.22,3.38-2,5.22-4.89,11.1-9.03,16.3-.42.56-.87,1.1-1.34,1.64-1.83,2.11-3.88,4.08-6.18,5.82-10.46,7.88-13.89,11.43-13.86,12.95Z"/>
      <path class="cls-7" d="m72.57,212.6l-10.55-.33s-3.6,25.93-20.63,38.39c-22.46,16.42-12.54,13.89-5.64,13.65s12.62-8.43,12.62-8.43"/>
      <path class="cls-7" d="m41.41,262.44s-2.87,1.86,2.16,1.88c7.83.04,10.22-1.73,15.29-8.31,7.27-9.43,10.33-19.09,10.33-19.09"/>
    </g>
    <g>
      <g>
        <path class="cls-14" d="m74.34,4.3s-37.19.16-40.65,31.41c-3.46,31.26-8.76,56.81-21.48,89.49s7.7,78.45,60.92,90.75c53.22,12.3,79.28-3.2,96.89-16.11s-56.35-114.02-56.35-114.02L74.34,4.3Z"/>
        <g class="cls-13">
          <g>
            <path class="cls-17" d="m116.38,213.11c-18.72.35-45-5.02-56.58-13.97-14.31-11.08-24.14-26.62-27.67-43.74-2.35-11.38-1.72-22.82,1.83-33.06,6.95-20.12,11.92-42.78,15.17-69.27,2.28-18.7,3.62-26.32,8.64-32.12,5.44-6.3,13.23-10.2,21.93-10.96.82-.07,1.65-.12,2.47-.13,7.92-.15,16.04,2.27,23.11,6.93,7.58,4.99,13.52,13.16,21.19,29.13,9.69,20.16,22.93,40.08,42.94,64.55,7.58,9.26,12.83,20.18,15.19,31.57,3.53,17.12.37,33.8-8.94,46.95-8.21,11.62-28.54,21.61-47.24,23.25l-6.79.6c-1.66.14-3.41.23-5.24.27h0Z"/>
            <g>
              <path class="cls-17" d="m115.37,220.94c-19.65,0-46.55-5.42-59.96-15.77-11.01-8.53-19.79-19.61-25.42-32.06-2.45-5.39-4.3-11.05-5.49-16.81-2.63-12.77-1.92-25.6,2.06-37.12,6.79-19.57,11.64-41.73,14.83-67.75,2.24-18.35,3.72-28.28,10.28-35.89,6.63-7.67,16.09-12.4,26.64-13.33.9-.08,1.88-.14,3-.17.3,0,.58,0,.85,0,9.32,0,18.64,2.88,26.95,8.34,9.07,5.99,15.89,15.16,24.31,32.72,9.39,19.54,22.29,38.9,41.82,62.77,8.48,10.36,14.35,22.56,16.98,35.29,3.96,19.23.39,37.97-10.06,52.76-10.24,14.43-31.69,23.3-48.41,25.68-1.21.18-2.51.33-3.95.46l-6.81.59c-1.66.15-3.53.25-5.7.29-.63.01-1.27.02-1.91.02Z"/>
              <path class="cls-19" d="m82.16,4.02c9.11,0,18.11,2.93,25.85,8.01,8.77,5.79,15.38,14.76,23.6,31.91,10.91,22.69,25.94,43.45,42.07,63.17,8.05,9.83,13.92,21.58,16.57,34.43,3.98,19.32-.03,37.47-9.73,51.2-9.08,12.8-29.13,22.3-47.06,24.86-1.29.19-2.57.34-3.84.45l-6.8.59c-1.75.16-3.62.25-5.57.28-.62.01-1.24.02-1.87.02-19.03,0-45.59-5.2-58.73-15.35-10.52-8.15-19.22-18.9-24.82-31.3-2.36-5.2-4.17-10.68-5.36-16.39-2.65-12.86-1.76-25.19,1.99-36.06,7.56-21.8,12.05-44.73,14.93-68.16,2.25-18.45,3.7-27.74,9.81-34.83,6.13-7.09,14.94-11.73,25.3-12.65.96-.09,1.92-.14,2.88-.16.27,0,.53,0,.79,0m0-4c-.29,0-.58,0-.87,0-1.2.03-2.22.09-3.17.18-11.05.98-20.99,5.95-27.96,14.01-6.94,8.05-8.46,18.21-10.75,36.96-3.17,25.88-7.99,47.9-14.73,67.34-4.1,11.86-4.84,25.07-2.13,38.18,1.23,5.91,3.12,11.71,5.63,17.24,5.76,12.74,14.75,24.09,26.01,32.81,13.77,10.63,41.2,16.19,61.18,16.19.66,0,1.31,0,1.95-.02,2.22-.04,4.13-.14,5.86-.3l6.77-.59c1.5-.13,2.83-.29,4.09-.48,17.11-2.44,39.15-11.58,49.73-26.5,10.78-15.25,14.47-34.54,10.39-54.32-2.69-13.04-8.7-25.54-17.39-36.15-19.42-23.74-32.24-42.98-41.56-62.37-8.59-17.92-15.6-27.31-25-33.52C101.57,3.02,91.87.02,82.16.02h0Z"/>
            </g>
            <path class="cls-16" d="m83.13,16.66c6.5-.12,13.16,1.87,18.96,5.69,6.24,4.09,11.39,11.36,18.36,25.89,9.97,20.76,23.53,41.16,43.96,66.14,6.79,8.29,11.48,18.05,13.59,28.23.27,1.32.5,2.63.68,3.94,1.95,13.92-1.08,27.3-8.68,38.05-7.24,10.22-26.12,19.38-42.98,20.86l-6.8.6c-1.57.14-3.21.22-4.9.25-18.33.34-42.67-5.29-51.83-12.39-12.8-9.9-21.59-23.79-24.75-39.11-.26-1.27-.48-2.54-.66-3.82-1.26-8.9-.48-17.72,2.3-25.74,7.1-20.54,12.16-43.61,15.46-70.54,2.27-18.54,3.5-24.59,7.26-28.94,4.48-5.18,10.87-8.39,18-9.01.68-.06,1.36-.1,2.04-.11h0Z"/>
            <path class="cls-12" d="m178.68,146.56c1.95,13.92-1.08,27.3-8.68,38.05-7.24,10.22-26.12,19.38-42.98,20.86l-6.8.6c-1.57.14-3.21.22-4.9.25-18.33.34-42.67-5.29-51.83-12.39-12.8-9.9-21.59-23.79-24.75-39.11-.26-1.27-.48-2.54-.66-3.82-1.26-8.9-.48-17.72,2.3-25.74,7.1-20.54,12.16-43.61,15.46-70.54,2.27-18.54,3.5-24.59,7.26-28.94,4.48-5.18,10.87-8.39,18-9.01.68-.06,1.36-.1,2.04-.11,6.5-.12,13.16,1.87,18.96,5.69,6.24,4.09,11.39,11.36,18.36,25.89,9.97,20.76,23.53,41.16,43.96,66.14,6.79,8.29,11.48,18.05,13.59,28.23.27,1.32.5,2.63.68,3.94h0ZM82.16,9.87c-.83.02-1.65.06-2.47.13-8.69.76-16.48,4.66-21.93,10.96-5.02,5.8-6.36,13.42-8.64,32.12-3.24,26.49-8.21,49.15-15.17,69.27-3.55,10.24-4.18,21.68-1.83,33.06,3.53,17.12,13.36,32.66,27.67,43.74,11.57,8.95,37.86,14.32,56.58,13.97,1.82-.03,3.58-.12,5.24-.27l6.79-.6c18.7-1.64,39.03-11.63,47.24-23.25,9.31-13.15,12.48-29.83,8.94-46.95-2.36-11.38-7.61-22.3-15.19-31.57-20.01-24.47-33.25-44.39-42.94-64.55-7.67-15.97-13.61-24.14-21.19-29.13-7.07-4.65-15.19-7.08-23.11-6.93h0Z"/>
          </g>
        </g>
      </g>
      <path class="cls-15" d="m31.82,172.29c5.6,12.4,14.3,23.15,24.82,31.3,13.58,10.49,41.49,15.7,60.61,15.34,1.95-.04,3.82-.12,5.57-.28l6.8-.59c1.27-.11,2.56-.26,3.84-.45,19.53-7.51,37.64-24.44,38.36-43.66.65-17.41-17.22-20.86-18.06-34.88-1.11-18.52-12.2-42.49-61.7-38.03-56.93,5.13-69.48,32.27-60.24,71.25Z"/>
      <path class="cls-3" d="m104.21,94.49c-59.5,5.36-56.42,39.6-53.26,74.69,3.16,35.09,55.37,30.39,73.85,28.73,18.48-1.66,51.29-5.4,52.22-30.25.65-17.41-10.28-21.12-11.11-35.15-1.1-18.52-12.2-42.48-61.7-38.03Z"/>
      <path class="cls-18" d="m50.48,154.35c-4.7,53.27,57.43,45.08,74.32,43.55,18.03-1.62,49.7-5.22,52.1-28.47-7.69,16.63-34.2,19.59-50.09,21.02-14.41,1.3-67.2,12.55-76.32-36.11Z"/>
      <path class="cls-8" d="m104.21,94.49c-59.5,5.36-56.42,39.6-53.26,74.69,3.16,35.09,55.37,30.39,73.85,28.73,18.48-1.66,51.29-5.4,52.22-30.25.65-17.41-10.28-21.12-11.11-35.15-1.1-18.52-12.2-42.48-61.7-38.03Z"/>
      <path class="cls-4" d="m129.16,100.11s6.56-2.13,5.11-8.75-4.11.8-8.15,1.5c0,0,3.6-2.72,1.9-8.29,0,0-2.75-10.09-7.02-1.08s-26.93,12.28-26.93,12.28"/>
      <path class="cls-10" d="m132.82,102.78s-1.65,2.54-5.17,3.29"/>
      <g>
        <rect class="cls-19" x="83.08" y="140.52" width="19.74" height="33.7" rx="9.87" ry="9.87" transform="translate(199.64 305.77) rotate(174.86)"/>
        <rect class="cls-19" x="136.57" y="135.7" width="19.74" height="33.7" rx="9.87" ry="9.87" transform="translate(305.97 291.36) rotate(174.86)"/>
        <g>
          <path class="cls-11" d="m119.65,180.52c-2.65,0-5.24-.94-7.27-2.64-2.33-1.93-3.77-4.67-4.04-7.7l-.34-3.77c-.57-6.36,4.14-12,10.5-12.57l14.83-1.33c.29-.03.57-.04.86-.04,4.92,0,8.96,3.7,9.4,8.6.23,2.52-.54,4.97-2.16,6.91-1.37,1.63-3.2,2.73-5.23,3.17,0,0,0,.01,0,.02.39,4.33-2.81,8.17-7.13,8.56l-8.39.75c-.34.03-.69.05-1.03.05h0Z"/>
          <path class="cls-19" d="m134.17,154.45c3.82,0,7.06,2.92,7.41,6.78.18,2.04-.48,3.98-1.7,5.44-1.22,1.46-3,2.46-5.05,2.64l-1.4.13c.43.52.71,1.17.77,1.89.29,3.24-2.09,6.09-5.32,6.38l-8.39.75c-.28.03-.57.04-.85.04-2.25,0-4.36-.81-5.99-2.17-1.84-1.53-3.1-3.77-3.33-6.35l-.02-.24-.32-3.54c-.47-5.27,3.41-9.93,8.68-10.4l14.83-1.34c.23-.02.45-.03.68-.03m0-4c-.34,0-.69.02-1.04.05l-14.83,1.34c-7.46.67-12.98,7.29-12.31,14.74l.32,3.54.02.24c.32,3.56,2.01,6.78,4.76,9.07,2.39,1.99,5.43,3.1,8.55,3.1.4,0,.81-.02,1.21-.05l8.39-.75c4.86-.44,8.6-4.36,8.96-9.08,1.83-.68,3.46-1.83,4.75-3.37,1.97-2.36,2.9-5.33,2.62-8.38-.53-5.94-5.43-10.42-11.39-10.42h0Z"/>
        </g>
      </g>
      <g class="cls-13">
        <path class="cls-19" d="m82.86,4c8.86,0,17.6,3.08,25.14,8.03,8.78,5.79,15.38,14.76,23.61,31.91,10.9,22.69,25.93,43.45,42.07,63.17,8.04,9.84,13.91,21.59,16.56,34.43,3.98,19.32-.03,37.47-9.73,51.2-8.27,11.64-25.59,20.55-42.15,24-8.35,2.76-17.15,4.27-27.46,4.27s-22.82-1.6-37.78-5.06C19.91,203.66.05,156.46,12.21,125.21c12.72-32.69,18.02-58.24,21.48-89.5,3.46-31.25,40.65-31.41,40.65-31.41l7.01-.28c.5-.02,1-.03,1.5-.03m0-4c-.55,0-1.11.01-1.66.03l-6.96.28c-1.04.01-10.48.24-20.43,4.28-14.18,5.75-22.51,16.36-24.1,30.69-3.15,28.45-7.97,54.38-21.23,88.49-6.22,15.99-4.51,35.82,4.6,53.05,11.4,21.58,32.41,36.87,59.14,43.04,15.01,3.47,27.66,5.16,38.68,5.16,10.15,0,19.47-1.44,28.5-4.4,18.75-3.95,36.15-13.97,44.37-25.55,10.78-15.26,14.47-34.55,10.39-54.33-2.69-13.03-8.7-25.53-17.39-36.15-19.43-23.74-32.25-42.97-41.57-62.37-8.6-17.92-15.61-27.32-25.01-33.52C101.55,3.01,92.1,0,82.86,0h0Z"/>
      </g>
      <rect class="cls-2" x="95.89" y="134.32" width="8.48" height="17.49" rx="4.24" ry="4.24" transform="translate(212.69 276.57) rotate(174.86)"/>
      <rect class="cls-2" x="149.07" y="130.22" width="8.48" height="17.49" rx="4.24" ry="4.24" transform="translate(318.46 263.62) rotate(174.86)"/>
    </g>
  </g>
</svg>