<?xml version="1.0" encoding="UTF-8"?>
<svg id="Layer_1" data-name="Layer 1" xmlns="http://www.w3.org/2000/svg" viewBox="0 0 751.68 303.56">
  <defs>
    <style>
      .cls-1, .cls-2, .cls-3 {
        fill: #fff;
      }

      .cls-4 {
        fill: #3c401a;
        font-family: FootlightMTLight, 'Footlight MT Light';
        font-size: 235.77px;
      }

      .cls-5, .cls-6 {
        fill: #93ca64;
      }

      .cls-2, .cls-3, .cls-7 {
        stroke-width: 4px;
      }

      .cls-2, .cls-3, .cls-7, .cls-8 {
        stroke: #231f20;
      }

      .cls-2, .cls-7, .cls-8 {
        stroke-miterlimit: 10;
      }

      .cls-9 {
        isolation: isolate;
      }

      .cls-10, .cls-11 {
        fill: #748451;
      }

      .cls-12 {
        fill: #dbe579;
      }

      .cls-3 {
        stroke-linejoin: round;
      }

      .cls-3, .cls-8 {
        stroke-linecap: round;
      }

      .cls-13 {
        opacity: .58;
      }

      .cls-14 {
        fill: #548446;
      }

      .cls-6 {
        font-family: Montserrat-Black, Montserrat;
        font-size: 142.18px;
        font-weight: 800;
      }

      .cls-15 {
        fill: #fbb040;
      }

      .cls-7, .cls-8 {
        fill: none;
      }

      .cls-16 {
        fill: #d1d3d4;
      }

      .cls-8 {
        stroke-width: 2px;
      }

      .cls-11 {
        opacity: .69;
      }

      .cls-17 {
        fill: #231f20;
      }

      .cls-18 {
        letter-spacing: -.03em;
      }
    </style>
  </defs>
  <g>
    <path class="cls-5" d="m208.78,151.06v-72.55h-28.77v-25.68h90.66v25.68h-28.77v72.55h-33.12Z"/>
    <path class="cls-5" d="m352.77,120.85c5.5-2.81,9.85-6.61,13.04-11.39,3.65-5.47,5.47-12,5.47-19.58s-1.82-14.15-5.47-19.71c-3.65-5.57-8.82-9.85-15.51-12.84-6.69-3-14.61-4.49-23.78-4.49h-47.29v98.23h33.11v-24.7h9.03l16.66,24.7h35.36l-20.62-30.22Zm-40.43-42.47h12.07c4.59,0,7.98,1.03,10.18,3.08,2.19,2.06,3.29,4.87,3.29,8.42s-1.1,6.37-3.29,8.42c-2.2,2.06-5.59,3.09-10.18,3.09h-12.07v-23.01Z"/>
    <path class="cls-5" d="m448.61,52.84h-32.56l-42.94,98.23h33.68l6.58-17.12h37.36l6.58,17.12h34.24l-42.94-98.23Zm-26.07,57.25l9.51-24.74,9.51,24.74h-19.02Z"/>
    <path class="cls-5" d="m546.28,153.31c-7.86,0-15.13-1.24-21.82-3.72-6.69-2.48-12.49-6.01-17.4-10.59-4.91-4.58-8.72-10.01-11.44-16.28-2.71-6.27-4.07-13.19-4.07-20.77s1.36-14.5,4.07-20.77c2.71-6.27,6.53-11.69,11.44-16.28,4.91-4.58,10.71-8.12,17.4-10.59,6.69-2.48,13.96-3.72,21.82-3.72,9.63,0,18.17,1.68,25.61,5.05,7.44,3.37,13.59,8.23,18.45,14.59l-20.91,18.66c-2.9-3.65-6.1-6.48-9.61-8.49-3.51-2.01-7.46-3.02-11.86-3.02-3.46,0-6.6.56-9.4,1.68s-5.22,2.76-7.23,4.91c-2.01,2.15-3.58,4.75-4.7,7.79-1.12,3.04-1.68,6.43-1.68,10.17s.56,7.14,1.68,10.17c1.12,3.04,2.69,5.64,4.7,7.79,2.01,2.15,4.42,3.79,7.23,4.91,2.81,1.12,5.94,1.68,9.4,1.68,4.4,0,8.35-1,11.86-3.02,3.51-2.01,6.71-4.84,9.61-8.49l20.91,18.66c-4.87,6.27-11.02,11.11-18.45,14.52-7.44,3.41-15.98,5.12-25.61,5.12Z"/>
    <polygon class="cls-5" points="695.31 52.84 658.26 115.45 658.26 151.07 625.15 151.07 625.15 115.06 588.1 52.84 623.04 52.84 643.08 86.87 663.32 52.84 695.31 52.84"/>
  </g>
  <ellipse class="cls-11" cx="112.68" cy="261.99" rx="90.03" ry="10.36"/>
  <g class="cls-13">
    <text class="cls-4" transform="translate(377.05 212.89)"><tspan x="0" y="0">&amp;</tspan></text>
  </g>
  <text class="cls-6" transform="translate(203 266.74)"><tspan class="cls-18" x="0" y="0">T</tspan><tspan x="88.01" y="0">ANND</tspan></text>
  <g>
    <g>
      <path class="cls-10" d="m80.46,4.35s-43.38.18-47.42,36.64c-4.04,36.46-10.22,66.25-25.05,104.37-14.18,36.44,8.98,91.5,71.05,105.84,62.07,14.34,92.47-3.74,113-18.79,20.53-15.05-65.73-132.98-65.73-132.98L80.46,4.35Z"/>
      <g class="cls-9">
        <g>
          <path class="cls-14" d="m129.48,247.88c-21.84.41-52.49-5.85-65.99-16.29-16.69-12.93-28.15-31.05-32.27-51.02-2.74-13.27-2-26.61,2.13-38.55,8.11-23.46,13.91-49.89,17.69-80.78,2.66-21.81,4.22-30.69,10.07-37.46,6.35-7.35,15.44-11.9,25.57-12.78.96-.08,1.92-.13,2.88-.15,9.24-.17,18.71,2.65,26.96,8.08,8.84,5.82,15.76,15.34,24.71,33.97,11.3,23.52,26.74,46.75,50.08,75.29,8.85,10.8,14.97,23.54,17.72,36.82,4.12,19.97.43,39.42-10.43,54.76-9.58,13.55-33.29,25.2-55.1,27.11l-7.92.7c-1.94.17-3.98.27-6.11.31h0Z"/>
          <g>
            <path class="cls-14" d="m128.31,256.69c-22.86,0-54.15-6.29-69.72-18.33-12.79-9.91-23.01-22.8-29.55-37.27-2.84-6.27-4.99-12.84-6.39-19.53-3.06-14.83-2.23-29.74,2.39-43.12,7.93-22.85,13.59-48.71,17.31-79.09,2.61-21.34,4.32-32.88,11.91-41.69,7.68-8.88,18.63-14.36,30.84-15.44,1.05-.1,2.15-.16,3.47-.2.34,0,.66,0,.99,0,10.8,0,21.61,3.34,31.25,9.67,10.53,6.95,18.44,17.61,28.23,38.03,10.97,22.82,26.02,45.42,48.81,73.28,9.86,12.04,16.68,26.23,19.73,41.01,4.61,22.34.46,44.1-11.68,61.28-10.13,14.28-33.26,26.54-56.24,29.82-1.4.21-2.9.39-4.58.54l-7.94.69c-1.94.18-4.12.29-6.63.34-.73.01-1.47.02-2.22.02h0Z"/>
            <path class="cls-17" d="m89.57,4.02c10.62,0,21.12,3.41,30.15,9.34,10.23,6.75,17.94,17.22,27.53,37.22,12.72,26.46,30.25,50.68,49.07,73.68,9.38,11.47,16.23,25.17,19.32,40.15,4.65,22.53-.03,43.7-11.35,59.72-10.59,14.93-33.97,26.01-54.89,28.99-1.5.23-3,.39-4.48.53l-7.93.69c-2.04.19-4.22.29-6.49.33-.72.01-1.45.02-2.19.02-22.19,0-53.18-6.07-68.5-17.91-12.28-9.51-22.41-22.05-28.95-36.51-2.75-6.06-4.86-12.46-6.25-19.12-3.09-15-2.06-29.38,2.33-42.06,8.82-25.42,14.06-52.17,17.41-79.5,2.63-21.51,4.32-32.36,11.44-40.62,7.15-8.26,17.43-13.68,29.5-14.75,1.12-.1,2.24-.16,3.36-.19.31,0,.62,0,.93,0m0-4c-.33,0-.67,0-1,0-1.38.04-2.56.11-3.65.21-12.72,1.12-24.15,6.85-32.16,16.12-7.97,9.25-9.73,21.02-12.39,42.75-3.71,30.23-9.34,55.96-17.22,78.67-4.74,13.72-5.59,29-2.47,44.18,1.42,6.84,3.62,13.56,6.52,19.96,6.67,14.76,17.09,27.91,30.14,38.02,15.94,12.31,47.75,18.75,70.95,18.75.76,0,1.52,0,2.26-.02,2.57-.05,4.79-.16,6.79-.35l7.9-.68c1.73-.16,3.28-.34,4.73-.56,19.82-2.83,45.33-13.4,57.56-30.63,12.46-17.64,16.72-39.95,12.01-62.84-3.12-15.1-10.08-29.58-20.15-41.88-22.68-27.73-37.66-50.21-48.56-72.88-9.96-20.78-18.07-31.66-28.93-38.83C111.95,3.48,100.77.02,89.57.02h0Z"/>
          </g>
          <path class="cls-12" d="m90.7,18.77c7.58-.14,15.35,2.18,22.12,6.64,7.27,4.77,13.28,13.25,21.41,30.2,11.62,24.21,27.44,48,51.27,77.14,7.91,9.67,13.39,21.06,15.85,32.93.32,1.54.58,3.07.8,4.59,2.28,16.23-1.26,31.84-10.12,44.38-8.44,11.92-30.47,22.61-50.13,24.33l-7.93.7c-1.83.16-3.74.26-5.72.29-21.38.4-49.77-6.17-60.45-14.45-14.92-11.54-25.18-27.75-28.87-45.61-.31-1.48-.56-2.97-.77-4.45-1.47-10.38-.56-20.67,2.68-30.02,8.28-23.95,14.18-50.86,18.03-82.28,2.65-21.63,4.08-28.68,8.47-33.75,5.22-6.05,12.68-9.78,21-10.51.79-.07,1.59-.11,2.38-.13h0Z"/>
          <path class="cls-5" d="m202.14,170.27c2.28,16.23-1.26,31.84-10.12,44.38-8.44,11.92-30.47,22.61-50.13,24.33l-7.93.7c-1.83.16-3.74.26-5.72.29-21.38.4-49.77-6.17-60.45-14.45-14.92-11.54-25.18-27.75-28.87-45.61-.31-1.48-.56-2.97-.77-4.45-1.47-10.38-.56-20.67,2.68-30.02,8.28-23.95,14.18-50.86,18.03-82.28,2.65-21.63,4.08-28.68,8.47-33.75,5.22-6.05,12.68-9.78,21-10.51.79-.07,1.59-.11,2.38-.13,7.58-.14,15.35,2.18,22.12,6.64,7.27,4.77,13.28,13.25,21.41,30.2,11.62,24.21,27.44,48,51.27,77.14,7.91,9.67,13.39,21.06,15.85,32.93.32,1.54.58,3.07.8,4.59h0ZM89.57,10.84c-.96.02-1.93.07-2.88.15-10.14.89-19.22,5.43-25.57,12.78-5.85,6.76-7.41,15.65-10.07,37.46-3.78,30.89-9.58,57.32-17.69,80.78-4.14,11.94-4.87,25.29-2.13,38.55,4.12,19.97,15.59,38.09,32.27,51.02,13.5,10.44,44.15,16.7,65.99,16.29,2.13-.04,4.17-.14,6.11-.31l7.92-.7c21.82-1.91,45.52-13.57,55.1-27.11,10.86-15.34,14.55-34.79,10.43-54.76-2.75-13.28-8.87-26.01-17.72-36.82-23.34-28.54-38.78-51.77-50.08-75.29-8.95-18.63-15.87-28.15-24.71-33.97-8.25-5.43-17.72-8.25-26.96-8.08h0Z"/>
        </g>
      </g>
    </g>
    <path class="cls-11" d="m30.86,200.27c6.54,14.46,16.67,27,28.95,36.51,15.84,12.23,48.39,18.31,70.69,17.89,2.27-.04,4.45-.14,6.49-.33l7.93-.69c1.48-.13,2.98-.3,4.48-.53,22.78-8.76,43.9-28.5,44.74-50.92.76-20.3-20.09-24.33-21.06-40.68-1.29-21.6-14.23-49.56-71.97-44.36-66.4,5.98-81.03,37.63-70.25,83.1Z"/>
    <path class="cls-2" d="m115.29,109.54c-69.4,6.25-65.8,46.19-62.12,87.12,3.68,40.93,64.58,35.45,86.13,33.51,21.55-1.94,59.82-6.3,60.91-35.28.76-20.3-11.98-24.63-12.96-40.99-1.29-21.6-14.23-49.55-71.96-44.35Z"/>
    <path class="cls-16" d="m52.63,179.36c-5.49,62.13,66.98,52.58,86.68,50.8,21.03-1.89,57.97-6.09,60.76-33.21-8.97,19.39-39.89,22.85-58.43,24.52-16.8,1.52-78.37,14.63-89.01-42.11Z"/>
    <path class="cls-7" d="m115.29,109.54c-69.4,6.25-65.8,46.19-62.12,87.12,3.68,40.93,64.58,35.45,86.13,33.51,21.55-1.94,59.82-6.3,60.91-35.28.76-20.3-11.98-24.63-12.96-40.99-1.29-21.6-14.23-49.55-71.96-44.35Z"/>
    <path class="cls-3" d="m144.38,116.09s7.65-2.48,5.96-10.2-4.8.93-9.51,1.75c0,0,4.2-3.17,2.22-9.67,0,0-3.2-11.77-8.19-1.26-4.98,10.51-31.4,14.32-31.4,14.32"/>
    <path class="cls-8" d="m148.65,119.21s-1.93,2.96-6.03,3.83"/>
    <g>
      <rect class="cls-17" x="90.65" y="163.22" width="23.03" height="39.31" rx="11.51" ry="11.51" transform="translate(220.31 355.86) rotate(174.86)"/>
      <rect class="cls-17" x="153.03" y="157.61" width="23.03" height="39.31" rx="11.51" ry="11.51" transform="translate(344.31 339.05) rotate(174.86)"/>
      <g>
        <path class="cls-15" d="m133.29,209.54c-3.02,0-5.95-1.07-8.27-3-2.65-2.2-4.29-5.31-4.6-8.76l-.4-4.4c-.32-3.5.75-6.92,3.01-9.62,2.26-2.7,5.43-4.36,8.93-4.68l17.3-1.56c.33-.03.65-.04.97-.04,5.56,0,10.14,4.18,10.64,9.73.26,2.85-.61,5.62-2.44,7.81-1.62,1.92-3.79,3.19-6.21,3.65.02.11.03.21.04.32.44,4.87-3.16,9.18-8.02,9.62l-9.78.88c-.39.04-.78.05-1.17.05h0Z"/>
        <path class="cls-17" d="m150.23,179.48c4.45,0,8.24,3.4,8.64,7.91.21,2.38-.55,4.64-1.98,6.35-1.43,1.7-3.5,2.87-5.89,3.08l-1.64.15c.5.61.83,1.37.9,2.2.34,3.78-2.44,7.11-6.2,7.44l-9.78.88c-.33.03-.66.04-.99.04-2.63,0-5.09-.95-6.99-2.54-2.15-1.79-3.62-4.39-3.89-7.4l-.03-.28-.37-4.12c-.55-6.14,3.98-11.58,10.13-12.13l17.3-1.56c.27-.02.53-.04.79-.04m0-4c-.38,0-.77.02-1.15.05l-17.3,1.56c-8.33.75-14.5,8.14-13.75,16.47l.37,4.12.03.28c.36,3.98,2.25,7.57,5.32,10.12,2.67,2.23,6.06,3.46,9.54,3.46.45,0,.9-.02,1.35-.06l9.78-.88c5.49-.49,9.67-5.03,9.87-10.41,2.19-.74,4.14-2.06,5.67-3.88,2.18-2.61,3.21-5.9,2.9-9.28-.59-6.59-6.02-11.55-12.63-11.55h0Z"/>
      </g>
    </g>
    <g class="cls-9">
      <path class="cls-17" d="m90.39,4c10.34,0,20.53,3.59,29.33,9.37,10.24,6.75,17.94,17.22,27.53,37.22,12.72,26.47,30.25,50.67,49.07,73.68,9.38,11.47,16.23,25.18,19.32,40.15,4.65,22.53-.03,43.7-11.35,59.72-9.64,13.57-29.85,23.97-49.16,27.99-9.74,3.22-20,4.98-32.02,4.98s-26.61-1.86-44.06-5.9C16.97,236.86-6.2,181.81,7.99,145.37c14.83-38.13,21.02-67.93,25.05-104.38C37.08,4.54,80.46,4.36,80.46,4.36l8.18-.32c.58-.02,1.17-.03,1.75-.03m0-4c-.64,0-1.28.01-1.91.04l-8.12.32c-1.13.01-12.06.26-23.6,4.94-16.29,6.61-25.87,18.8-27.69,35.25-3.68,33.23-9.31,63.53-24.81,103.37-7.19,18.47-5.2,41.39,5.33,61.32,13.21,24.99,37.55,42.7,68.54,49.87,17.45,4.04,32.16,6,44.96,6,11.78,0,22.6-1.67,33.06-5.11,21.72-4.57,41.88-16.15,51.38-29.54,12.47-17.64,16.73-39.96,12.01-62.84-3.12-15.09-10.08-29.57-20.14-41.88-22.69-27.73-37.67-50.2-48.56-72.88-9.97-20.78-18.08-31.67-28.94-38.82C111.93,3.47,101.03,0,90.39,0h0Z"/>
    </g>
    <rect class="cls-1" x="105.59" y="157.01" width="9.89" height="20.39" rx="4.94" ry="4.94" transform="translate(235.61 323.83) rotate(174.86)"/>
    <rect class="cls-1" x="167.61" y="151.21" width="9.89" height="20.39" rx="4.94" ry="4.94" transform="translate(358.88 306.7) rotate(174.86)"/>
  </g>
</svg>