<?xml version="1.0" encoding="utf-8"?>
<!-- Generator: Adobe Illustrator 27.5.0, SVG Export Plug-In . SVG Version: 6.00 Build 0)  -->
<svg version="1.1" id="Layer_1" xmlns="http://www.w3.org/2000/svg" xmlns:xlink="http://www.w3.org/1999/xlink" x="0px" y="0px"
	 viewBox="0 0 512 512" style="enable-background:new 0 0 512 512;" xml:space="preserve">
<path d="M256,48c114.9,0,208,93.1,208,208s-93.1,208-208,208S48,370.9,48,256S141.1,48,256,48z M256,512c141.4,0,256-114.6,256-256
	S397.4,0,256,0S0,114.6,0,256S114.6,512,256,512z M369,209c9.4-9.4,9.4-24.6,0-33.9s-24.6-9.4-33.9,0l-111,111l-47-47
	c-9.4-9.4-24.6-9.4-33.9,0s-9.4,24.6,0,33.9l64,64c9.4,9.4,24.6,9.4,33.9,0L369,209z"/>
</svg>
