<?xml version="1.0" encoding="UTF-8"?><svg id="a" xmlns="http://www.w3.org/2000/svg" viewBox="0 0 1247.28 1082.65"><defs><style>.b{fill:#2a3568;}.c{fill:#4b9c45;}</style></defs><path class="b" d="m716.07,46.68l518.4,893.01c36.25,62.47-8.78,140.74-81,140.79l-173.39.11c-7.32,0-10.35-9.5-4.3-13.62,38.37-26.13,54.68-79.59,28.45-124.77l-64.79-111.62c-.76-1.77-1.64-3.53-2.65-5.27l-232.96-401.31-30.05-51.76c-1-1.72-2.07-3.34-3.23-4.87-19.76-26.32-60.89-25.09-78.57,4.11l-274.54,453.42c-.1.17-.2.33-.29.5-.13.2-.26.41-.38.61-17.58,29.03-8.29,66.81,20.74,84.38,26.39,15.98,60.03,9.75,79.12-13.35h.78s43.73-72.22,43.73-72.22c3.42-5.65,11.63-5.57,14.95.14l41.81,72.02,60.25,103.78c17.91,30.84.21,68.6-32.07,76.76l-477.3.31c-57.55-15.69-88.32-84.02-55.06-138.95L554.83,45.18c36.87-60.89,125.5-60.08,161.24,1.5Z"/><path class="c" d="m818.48,1082.57l-115.46.08c-6.43,0-9.29-7.97-4.4-12.16,3.07-2.63,5.89-5.64,8.39-9.01,10.16-12.86,14.1-30.45,8.63-47.2,0,0,0-.03,0-.03-1.11-3.34-2.59-6.66-4.45-9.89l-5.38-9.25-58.84-101.36-102.5-176.57c-5.48-9.44-5.37-21.11.28-30.45l83.1-137.24,199.77,344.13,50.01,86.17c26.47,45.6-6.41,102.74-59.13,102.77Z"/></svg>